<mxfile host="app.diagrams.net" modified="2023-07-29T17:02:05.611Z" agent="Mozilla/5.0 (Windows NT 10.0; Win64; x64) AppleWebKit/537.36 (KHTML, like Gecko) Chrome/115.0.0.0 Safari/537.36" version="21.6.6" etag="CrVoXd1N202rZ3QHE55w" type="device">
  <diagram id="EYezKTaF6kszip-LmpPC" name="Page-1">
    <mxGraphModel dx="880" dy="1309" grid="1" gridSize="10" guides="1" tooltips="1" connect="1" arrows="1" fold="1" page="1" pageScale="1" pageWidth="1100" pageHeight="850" background="none" math="0" shadow="0">
      <root>
        <mxCell id="0" />
        <mxCell id="1" parent="0" />
        <mxCell id="jEGFKE7tPsHiPqjkNzsL-5" style="edgeStyle=orthogonalEdgeStyle;rounded=0;orthogonalLoop=1;jettySize=auto;html=1;exitX=0.5;exitY=1;exitDx=0;exitDy=0;entryX=0.5;entryY=0;entryDx=0;entryDy=0;strokeColor=#028090;fontColor=#E4FDE1;fillColor=#F45B69;" edge="1" parent="1" source="jEGFKE7tPsHiPqjkNzsL-1" target="jEGFKE7tPsHiPqjkNzsL-2">
          <mxGeometry relative="1" as="geometry" />
        </mxCell>
        <mxCell id="jEGFKE7tPsHiPqjkNzsL-1" value="&lt;b&gt;&lt;font style=&quot;font-size: 18px;&quot;&gt;Start&lt;/font&gt;&lt;/b&gt;" style="ellipse;whiteSpace=wrap;html=1;strokeColor=#028090;fontColor=#E4FDE1;fillColor=#F45B69;" vertex="1" parent="1">
          <mxGeometry x="380" y="-500" width="120" height="80" as="geometry" />
        </mxCell>
        <mxCell id="jEGFKE7tPsHiPqjkNzsL-6" style="edgeStyle=orthogonalEdgeStyle;rounded=0;orthogonalLoop=1;jettySize=auto;html=1;exitX=0.5;exitY=1;exitDx=0;exitDy=0;strokeColor=#028090;fontColor=#E4FDE1;fillColor=#F45B69;" edge="1" parent="1" source="jEGFKE7tPsHiPqjkNzsL-2">
          <mxGeometry relative="1" as="geometry">
            <mxPoint x="440" y="-270" as="targetPoint" />
          </mxGeometry>
        </mxCell>
        <mxCell id="jEGFKE7tPsHiPqjkNzsL-2" value="&lt;b&gt;&lt;font style=&quot;font-size: 16px;&quot;&gt;Declare variable a,b and Total&lt;/font&gt;&lt;/b&gt;" style="rounded=0;whiteSpace=wrap;html=1;strokeColor=#028090;fontColor=#E4FDE1;fillColor=#F45B69;" vertex="1" parent="1">
          <mxGeometry x="320" y="-370" width="240" height="60" as="geometry" />
        </mxCell>
        <mxCell id="jEGFKE7tPsHiPqjkNzsL-9" style="edgeStyle=orthogonalEdgeStyle;rounded=0;orthogonalLoop=1;jettySize=auto;html=1;strokeColor=#028090;fontColor=#E4FDE1;fillColor=#F45B69;" edge="1" parent="1" source="jEGFKE7tPsHiPqjkNzsL-7">
          <mxGeometry relative="1" as="geometry">
            <mxPoint x="440" y="-170" as="targetPoint" />
          </mxGeometry>
        </mxCell>
        <mxCell id="jEGFKE7tPsHiPqjkNzsL-7" value="&lt;font style=&quot;font-size: 15px;&quot;&gt;&lt;b&gt;Read a and b&lt;/b&gt;&lt;/font&gt;" style="shape=parallelogram;perimeter=parallelogramPerimeter;whiteSpace=wrap;html=1;fixedSize=1;strokeColor=#028090;fontColor=#E4FDE1;fillColor=#F45B69;" vertex="1" parent="1">
          <mxGeometry x="305" y="-270" width="270" height="60" as="geometry" />
        </mxCell>
        <mxCell id="jEGFKE7tPsHiPqjkNzsL-11" style="edgeStyle=orthogonalEdgeStyle;rounded=0;orthogonalLoop=1;jettySize=auto;html=1;exitX=0.5;exitY=1;exitDx=0;exitDy=0;strokeColor=#028090;fontColor=#E4FDE1;fillColor=#F45B69;" edge="1" parent="1" source="jEGFKE7tPsHiPqjkNzsL-10">
          <mxGeometry relative="1" as="geometry">
            <mxPoint x="435" y="-70" as="targetPoint" />
          </mxGeometry>
        </mxCell>
        <mxCell id="jEGFKE7tPsHiPqjkNzsL-10" value="&lt;b&gt;&lt;font style=&quot;font-size: 16px;&quot;&gt;Total = a+b&lt;/font&gt;&lt;/b&gt;" style="rounded=0;whiteSpace=wrap;html=1;strokeColor=#028090;fontColor=#E4FDE1;fillColor=#F45B69;" vertex="1" parent="1">
          <mxGeometry x="310" y="-160" width="250" height="60" as="geometry" />
        </mxCell>
        <mxCell id="jEGFKE7tPsHiPqjkNzsL-13" style="edgeStyle=orthogonalEdgeStyle;rounded=0;orthogonalLoop=1;jettySize=auto;html=1;exitX=1;exitY=0.5;exitDx=0;exitDy=0;strokeColor=#028090;fontColor=#E4FDE1;fillColor=#F45B69;" edge="1" parent="1" source="jEGFKE7tPsHiPqjkNzsL-12">
          <mxGeometry relative="1" as="geometry">
            <mxPoint x="760" y="-120" as="targetPoint" />
          </mxGeometry>
        </mxCell>
        <mxCell id="jEGFKE7tPsHiPqjkNzsL-12" value="&lt;b&gt;&lt;font style=&quot;font-size: 14px;&quot;&gt;print Total&lt;/font&gt;&lt;/b&gt;" style="shape=parallelogram;perimeter=parallelogramPerimeter;whiteSpace=wrap;html=1;fixedSize=1;strokeColor=#028090;fontColor=#E4FDE1;fillColor=#F45B69;" vertex="1" parent="1">
          <mxGeometry x="375" y="-70" width="120" height="60" as="geometry" />
        </mxCell>
        <mxCell id="jEGFKE7tPsHiPqjkNzsL-14" value="&lt;b&gt;&lt;font style=&quot;font-size: 16px;&quot;&gt;Stop&lt;/font&gt;&lt;/b&gt;" style="ellipse;whiteSpace=wrap;html=1;strokeColor=#028090;fontColor=#E4FDE1;fillColor=#F45B69;" vertex="1" parent="1">
          <mxGeometry x="700" y="-210" width="120" height="80" as="geometry" />
        </mxCell>
      </root>
    </mxGraphModel>
  </diagram>
</mxfile>
